# xmcd CD database file generated by OrangeCD 6.4
#
# Track frame offsets:
#	150
#	15381
#	35548
#	60355
#	74066
#	98371
#	113719
#	141143
#	155891
#	171488
#	184190
#	205019
#	216605
#	240569
#	255441
#
# Disc length: 3546 seconds
#
# Revision: 1
# Processed by: cddbd v1.5.2PL0 Copyright (c) Steve Scherf et al.
# Submitted via: OrangeCD 6.4
#
DISCID=d40dd80f
DTITLE=Liz Mandville - Red Top
DYEAR=2008
DGENRE=Blues
TTITLE0=Red Top
TTITLE1=Corner Bar Blues
TTITLE2=Dog No More
TTITLE3=Spanky Butt
TTITLE4=My Baby's Ner Baby Too
TTITLE5=Rub My Belly
TTITLE6=So Smart Baby
TTITLE7=Scratch The Kitty
TTITLE8=Whoa, Whoa, Whoa
TTITLE9=Bad Man Blues
TTITLE10=Hold Me
TTITLE11=Home Cookin'
TTITLE12=Illinois Natural Guard Blues
TTITLE13=Guilty Of Rockin' All Night
TTITLE14=Little Queen
EXTD=
EXTT0=
EXTT1=
EXTT2=
EXTT3=
EXTT4=
EXTT5=
EXTT6=
EXTT7=
EXTT8=
EXTT9=
EXTT10=
EXTT11=
EXTT12=
EXTT13=
EXTT14=
PLAYORDER=
